<?xml version="1.0" standalone="no"?>
<!DOCTYPE svg PUBLIC "-//W3C//DTD SVG 20010904//EN"
 "http://www.w3.org/TR/2001/REC-SVG-20010904/DTD/svg10.dtd">
<svg version="1.0" xmlns="http://www.w3.org/2000/svg"
 width="875.000000pt" height="282.000000pt" viewBox="0 0 875.000000 282.000000"
 preserveAspectRatio="xMidYMid meet">

<g transform="translate(0.000000,282.000000) scale(0.100000,-0.100000)"
fill="#000000" stroke="none">
<path d="M1260 2642 c-23 -23 -43 -52 -46 -70 -5 -25 -12 -32 -29 -32 -76 0
-328 -100 -431 -171 l-45 -31 -51 22 c-79 34 -165 9 -208 -62 -27 -44 -27
-132 -1 -172 l19 -29 -33 -51 c-70 -111 -125 -244 -150 -366 -9 -46 -16 -57
-40 -69 -140 -65 -147 -238 -12 -307 40 -21 44 -27 52 -82 15 -102 92 -285
164 -391 l30 -44 -25 -36 c-31 -46 -33 -131 -4 -178 49 -81 168 -102 244 -42
l26 20 42 -29 c96 -66 283 -143 382 -158 49 -8 66 -20 66 -47 0 -33 37 -81 80
-106 94 -53 217 4 239 109 6 32 10 34 70 46 127 26 254 79 368 153 54 34 63
38 74 25 40 -48 141 -62 200 -28 54 32 79 77 79 144 0 47 -5 64 -28 96 l-29
39 32 50 c74 115 123 233 154 368 16 67 17 69 56 83 92 31 136 129 97 215 -23
53 -48 77 -99 94 -37 13 -38 15 -59 96 -36 144 -95 277 -160 366 l-24 31 20
44 c43 95 7 181 -94 223 -42 18 -89 14 -137 -11 -25 -13 -31 -11 -95 31 -86
57 -192 102 -319 135 -94 25 -100 28 -107 57 -4 17 -26 47 -48 67 -38 34 -44
36 -110 36 -67 0 -71 -1 -110 -38z m-60 -206 l0 -55 -57 -16 c-88 -24 -187
-65 -249 -102 -30 -18 -58 -33 -62 -33 -11 0 -72 63 -72 75 0 27 212 132 331
164 111 30 109 30 109 -33z m495 18 c88 -28 245 -107 272 -136 16 -18 15 -21
-20 -55 l-36 -37 -98 51 c-54 29 -136 63 -183 76 l-85 25 -3 57 -3 57 38 -6
c21 -4 74 -18 118 -32z m-217 -110 c22 -6 22 -8 22 -183 l0 -176 -135 0 -135
0 2 175 3 174 25 7 c32 9 188 11 218 3z m-280 -196 l-3 -182 -38 -15 -38 -14
-125 124 c-68 68 -124 127 -124 131 0 24 250 132 318 137 10 1 12 -39 10 -181z
m426 166 c73 -18 246 -101 246 -118 0 -6 -56 -67 -124 -135 l-125 -125 -40 14
-41 13 0 184 c0 127 3 183 11 183 6 0 39 -7 73 -16z m-544 -394 c0 -3 -23 -23
-51 -45 -28 -21 -70 -63 -92 -93 l-40 -53 -124 123 c-68 67 -123 127 -123 132
0 5 41 50 90 100 l90 90 125 -124 c69 -69 125 -127 125 -130z m882 213 c24
-21 65 -62 91 -92 l48 -55 -131 -131 c-118 -117 -132 -128 -142 -111 -18 32
-81 97 -130 136 l-47 38 125 126 c69 69 130 126 134 126 5 0 28 -17 52 -37z
m-1408 -112 l38 -39 -21 -31 c-35 -48 -97 -189 -116 -263 l-18 -68 -57 0 -58
0 15 68 c8 37 30 105 49 151 34 87 109 221 122 221 5 0 25 -18 46 -39z m1761
-106 c40 -81 95 -245 95 -281 0 -10 -15 -14 -57 -14 l-58 0 -17 73 c-10 39
-42 121 -73 182 l-54 110 37 38 37 38 23 -28 c13 -15 43 -68 67 -118z m-1451
-258 l-18 -37 -178 0 c-163 0 -178 1 -178 18 0 32 56 179 95 247 l37 68 130
-130 129 -129 -17 -37z m586 282 l50 -11 0 -149 c0 -136 -6 -170 -25 -139 -3
6 -11 10 -18 10 -6 0 -1 -7 11 -16 18 -12 20 -19 12 -29 -9 -11 -17 -11 -45 1
-45 18 -99 18 -137 -2 -28 -14 -32 -14 -46 0 -14 14 -11 17 29 35 24 12 37 21
29 20 -8 0 -26 -6 -40 -14 -14 -8 -28 -14 -32 -15 -13 0 -9 288 4 296 37 23
133 29 208 13z m727 -77 c37 -73 83 -202 83 -231 0 -8 -59 -11 -188 -11 l-189
0 -11 38 -12 37 128 128 c70 70 131 126 137 124 5 -2 29 -40 52 -85z m-977 28
c0 -11 -4 -20 -9 -20 -13 0 -32 26 -24 33 13 14 33 6 33 -13z m374 11 c3 -4
-3 -16 -14 -26 -19 -18 -20 -17 -20 8 0 26 22 38 34 18z m-412 -58 l38 -37 0
-93 0 -93 -98 0 -98 0 -37 38 c-36 37 -36 38 -20 62 35 54 149 160 172 160 3
0 22 -17 43 -37z m520 -8 c50 -39 118 -120 118 -141 0 -5 -14 -23 -32 -41 -32
-33 -32 -33 -130 -33 l-98 0 0 92 0 92 37 38 c20 21 40 38 43 38 3 0 31 -20
62 -45z m-752 -213 c-27 -4 -34 2 -26 24 6 15 8 15 27 -2 l21 -19 -22 -3z
m904 13 c4 -11 -2 -15 -21 -15 -21 0 -24 2 -13 15 7 8 16 15 20 15 4 0 10 -7
14 -15z m-1009 -190 l0 -135 -171 0 -171 0 -7 38 c-7 47 -8 180 0 210 6 22 8
22 178 22 l171 0 0 -135z m382 120 c19 -14 20 -17 7 -52 -17 -49 -17 -63 2
-118 12 -36 13 -50 4 -61 -16 -18 -29 -9 -46 30 -7 17 -13 25 -14 18 0 -7 7
-26 15 -42 l16 -30 -155 0 -155 0 -8 38 c-10 46 -10 168 0 205 l7 27 153 0
c118 0 157 -3 174 -15z m651 -2 c9 -23 9 -213 0 -235 -7 -16 -24 -18 -159 -18
-130 0 -150 2 -145 15 15 38 16 47 1 22 -16 -27 -17 -28 -35 -12 -18 16 -18
20 -5 46 17 33 20 112 4 140 -14 27 6 55 28 38 11 -10 12 -9 7 5 -6 14 9 16
145 16 135 0 152 -2 159 -17z m416 -29 c8 -59 8 -138 0 -186 l-7 -38 -181 0
-181 0 0 135 0 135 181 0 181 0 7 -46z m-904 -239 c30 0 62 4 71 8 12 6 24 1
38 -14 19 -21 21 -34 21 -175 0 -100 -4 -155 -11 -160 -21 -13 -174 -16 -216
-5 l-43 12 0 146 c0 146 0 147 27 175 18 19 32 26 43 21 8 -4 40 -8 70 -8z
m-924 -42 c17 -77 51 -167 96 -252 l49 -94 -37 -38 c-21 -22 -41 -39 -44 -39
-8 0 -54 77 -94 156 -36 73 -86 229 -86 270 0 22 4 24 55 24 51 0 55 -2 61
-27z m417 -17 l19 -39 -124 -124 c-67 -67 -126 -123 -130 -123 -24 0 -117 203
-133 293 l-7 37 178 -2 179 -3 18 -39z m87 36 c0 -5 -8 -17 -19 -26 -17 -15
-19 -15 -25 -1 -10 28 -7 35 19 35 14 0 25 -4 25 -8z m248 -91 l3 -94 -38 -39
c-20 -21 -43 -38 -50 -38 -17 0 -144 121 -165 157 -17 29 -17 29 23 71 l40 43
92 -3 92 -3 3 -94z m567 59 c35 -36 37 -42 27 -65 -16 -34 -84 -107 -132 -140
l-41 -28 -39 38 -40 39 0 91 c0 51 3 95 7 98 3 4 45 7 93 7 l86 0 39 -40z m75
26 c0 -22 -19 -30 -35 -16 -22 18 -18 30 10 30 15 0 25 -6 25 -14z m420 -4 c0
-45 -85 -252 -126 -307 -14 -18 -20 -13 -144 110 -72 71 -130 133 -130 136 0
4 7 23 15 43 l15 36 185 0 c172 0 185 -1 185 -18z m150 -1 c0 -67 -83 -278
-151 -385 l-31 -49 -41 42 -42 41 19 33 c47 81 86 168 106 237 12 41 23 81 26
88 2 8 23 12 59 12 47 0 55 -3 55 -19z m-1447 -413 c-65 -65 -124 -118 -133
-118 -18 0 -183 166 -178 180 1 5 56 63 121 129 l119 119 95 -96 94 -95 -118
-119z m1012 182 l129 -129 -91 -91 c-51 -49 -96 -90 -100 -90 -5 0 -65 57
-135 128 l-127 127 57 45 c31 25 73 67 92 93 19 26 37 47 40 47 3 0 64 -58
135 -130z m-775 -29 c0 -24 -3 -28 -20 -24 -24 6 -25 11 -3 35 21 24 23 23 23
-11z m380 -11 c0 -4 -9 -10 -20 -13 -17 -4 -20 0 -20 25 0 30 0 31 20 13 11
-10 20 -21 20 -25z m287 -303 c-66 -45 -268 -127 -313 -127 -11 0 -14 33 -14
184 l0 183 38 15 37 15 132 -130 c92 -91 129 -134 120 -140z m-697 248 l30
-16 0 -179 c0 -99 -3 -180 -8 -180 -26 0 -155 45 -215 75 -128 64 -129 47 13
190 69 69 131 125 138 125 7 0 26 -7 42 -15z m330 -206 l0 -176 -31 -7 c-41
-8 -133 -8 -193 0 l-46 7 0 176 0 176 135 0 135 0 0 -176z m-382 -189 l82 -24
0 -58 c0 -55 -1 -58 -22 -53 -13 3 -45 10 -73 15 -75 16 -191 65 -278 117
l-77 47 41 42 41 41 101 -51 c56 -29 139 -63 185 -76z m827 89 l40 -40 -25
-19 c-72 -56 -267 -140 -369 -158 l-51 -9 0 58 0 58 58 16 c88 24 187 65 244
101 29 18 55 33 58 33 3 1 24 -17 45 -40z"/>
<path d="M1418 1653 c7 -3 16 -2 19 1 4 3 -2 6 -13 5 -11 0 -14 -3 -6 -6z"/>
<path d="M1175 1559 c-4 -6 -5 -12 -2 -15 2 -3 7 2 10 11 7 17 1 20 -8 4z"/>
<path d="M1156 1515 c-3 -9 -5 -40 -4 -68 l1 -52 7 65 c7 70 6 80 -4 55z"/>
<path d="M1561 1535 c1 -19 18 -51 18 -35 0 8 -4 22 -9 30 -5 8 -9 11 -9 5z"/>
<path d="M1581 1455 c0 -16 -4 -41 -6 -55 l-6 -25 11 25 c6 13 9 38 7 55 l-4
30 -2 -30z"/>
<path d="M1257 1259 c7 -7 15 -10 18 -7 3 3 -2 9 -12 12 -14 6 -15 5 -6 -5z"/>
<path d="M1460 1260 c-8 -5 -10 -10 -5 -10 6 0 17 5 25 10 8 5 11 10 5 10 -5
0 -17 -5 -25 -10z"/>
<path d="M8220 1809 c-60 -10 -200 -72 -200 -88 0 -5 14 -18 30 -28 29 -17 30
-19 30 -100 l0 -83 -28 0 c-23 0 -32 -7 -45 -35 -9 -20 -17 -38 -17 -40 0 -3
20 -5 45 -5 l45 0 0 -123 0 -123 -45 -34 c-25 -19 -45 -36 -45 -39 0 -3 114
-4 252 -1 232 5 256 7 288 26 118 69 117 235 -2 313 l-36 23 38 37 c98 93 53
242 -87 289 -49 16 -161 22 -223 11z m187 -101 c30 -31 41 -100 21 -138 -20
-38 -73 -60 -145 -60 l-63 0 0 103 c0 98 1 105 23 115 12 7 48 10 80 9 46 -3
63 -8 84 -29z m-15 -288 c53 -15 78 -51 78 -114 0 -30 -6 -61 -15 -73 -20 -29
-102 -53 -177 -53 l-58 0 0 125 0 125 68 0 c37 0 84 -5 104 -10z"/>
<path d="M2951 1783 c7 -10 22 -28 32 -40 19 -21 18 -23 -18 -122 -21 -56 -41
-101 -45 -101 -5 0 -18 12 -29 27 -12 14 -22 24 -24 22 -25 -43 -55 -114 -51
-120 3 -5 15 -9 27 -9 47 0 50 -12 22 -86 -33 -88 -86 -168 -130 -196 -61 -40
-48 -47 106 -50 77 -2 142 -1 145 1 2 2 -12 22 -31 44 -25 30 -35 50 -35 75 0
36 29 142 39 142 5 0 32 -35 98 -128 6 -10 13 -15 15 -12 34 46 81 100 88 100
4 0 21 -32 36 -72 l27 -72 -41 -36 c-23 -19 -42 -38 -42 -40 0 -3 75 -4 166
-2 l167 3 -51 37 c-48 35 -53 43 -96 158 -25 66 -46 123 -46 127 0 4 23 7 51
7 28 0 49 3 47 8 -12 22 -46 100 -52 116 -6 18 -10 16 -41 -14 -19 -19 -36
-32 -39 -29 -2 2 -20 48 -40 103 l-37 99 30 31 c17 18 31 35 31 39 0 4 -66 7
-146 7 -138 0 -146 -1 -133 -17z m144 -255 l36 -98 -28 -35 c-15 -19 -30 -35
-33 -35 -7 0 -80 95 -80 104 0 12 62 168 65 164 2 -2 20 -47 40 -100z"/>
<path d="M3332 1793 c2 -5 17 -35 34 -68 17 -33 37 -77 43 -97 7 -21 16 -38
19 -38 4 0 14 21 22 47 19 57 67 96 115 91 l30 -3 2 -270 3 -270 -45 -34 c-25
-18 -45 -36 -45 -40 0 -3 70 -6 155 -6 85 0 155 3 155 7 0 3 -18 21 -40 40
l-39 33 -1 260 c-1 143 -1 266 0 273 0 16 43 15 86 -3 25 -10 39 -25 50 -52 8
-21 19 -47 23 -58 l9 -20 7 20 c5 11 23 53 41 93 l33 73 31 -22 30 -23 0 -272
0 -272 -45 -33 c-24 -19 -45 -36 -45 -39 0 -3 198 -5 440 -5 242 0 440 2 440
4 0 2 -16 21 -35 42 -41 45 -46 93 -19 173 19 56 25 53 89 -42 l43 -63 20 33
c23 36 69 84 76 77 2 -2 16 -35 31 -74 l26 -70 -41 -33 c-22 -19 -40 -37 -40
-40 0 -6 134 -7 423 -3 65 1 87 4 87 14 0 8 -11 19 -25 25 -14 7 -30 24 -36
39 -15 38 -25 413 -11 413 6 0 12 -6 14 -13 2 -8 57 -118 122 -245 l119 -230
49 -4 c28 -1 54 -1 59 2 4 3 9 142 11 308 3 300 3 302 26 324 l23 23 19 -22
c10 -13 29 -52 42 -88 12 -36 25 -65 28 -65 3 0 13 23 23 50 21 58 51 82 105
84 l37 1 3 -270 2 -270 -44 -35 c-25 -19 -45 -37 -46 -40 0 -3 72 -5 160 -5
88 0 160 3 160 6 0 3 -20 21 -45 39 l-45 34 2 270 3 271 37 -1 c54 -2 84 -26
105 -84 10 -27 21 -50 24 -50 4 0 10 12 14 28 3 15 24 62 46 105 l39 77 -435
0 c-327 0 -435 -3 -435 -12 0 -6 15 -24 33 -39 l32 -27 3 -198 c2 -109 1 -196
-2 -193 -3 3 -51 93 -107 199 -82 158 -98 196 -87 205 8 5 30 22 49 37 l34 28
-175 0 -175 0 48 -41 48 -41 -3 -263 c-3 -263 -3 -263 -27 -289 -30 -32 -38
-32 -77 2 -23 20 -42 56 -73 140 -22 62 -41 117 -41 122 0 6 22 10 50 10 l50
0 -24 53 c-14 28 -27 61 -31 71 -5 18 -8 17 -38 -12 -18 -18 -36 -32 -39 -32
-3 0 -22 45 -43 100 -38 100 -38 101 -18 123 53 61 61 57 -108 57 l-153 0 37
-38 37 -38 -36 -100 c-20 -54 -38 -101 -40 -103 -3 -3 -18 8 -34 24 -20 20
-30 24 -30 14 0 -8 -13 -36 -30 -62 l-29 -47 27 -6 c54 -11 55 -13 48 -46 -8
-42 -50 -133 -83 -181 -29 -42 -90 -84 -103 -71 -14 15 -78 148 -85 177 -11
44 -21 40 -34 -17 -21 -95 -63 -126 -171 -126 l-60 0 0 269 0 269 48 41 47 40
-478 1 c-263 0 -477 -3 -475 -7z m1621 -397 c-16 -17 -29 -33 -31 -36 -5 -8
-81 85 -82 101 0 15 44 141 57 162 3 6 23 -37 45 -93 l38 -104 -27 -30z"/>
<path d="M6769 1759 l51 -41 0 -106 0 -107 -30 -17 c-36 -21 -74 -78 -60 -92
7 -7 20 -4 39 7 16 9 34 17 40 17 7 0 11 -39 11 -117 l-1 -118 -44 -33 c-25
-18 -45 -36 -45 -40 0 -4 71 -6 157 -4 l158 3 -40 34 c-22 19 -43 34 -47 35
-5 0 -8 55 -8 121 l0 122 31 -7 c17 -3 62 -6 100 -6 l69 0 0 -112 -1 -113 -46
-35 c-55 -41 -65 -38 135 -42 72 -2 132 0 132 4 0 4 -20 22 -45 40 l-44 33 -1
266 0 266 39 31 c22 18 44 32 50 32 6 0 26 -14 45 -30 l34 -30 4 -238 c3 -232
4 -239 29 -287 34 -68 84 -95 187 -102 143 -10 219 33 241 135 6 29 11 140 11
248 0 217 7 252 60 282 59 34 39 42 -100 42 -141 0 -157 -7 -97 -45 57 -36 62
-58 62 -285 0 -184 -2 -209 -20 -245 -14 -28 -30 -44 -57 -54 -50 -18 -123 -7
-154 24 -24 24 -24 24 -24 278 l0 253 45 34 c25 19 45 35 45 37 0 2 -141 3
-312 3 l-313 -1 48 -40 47 -41 0 -114 0 -114 -69 0 c-38 0 -83 3 -100 6 l-31
7 0 107 0 108 48 41 47 40 -164 1 -164 0 52 -41z"/>
</g>
</svg>
